<?xml version="1.0" encoding="UTF-8" standalone="no"?>
<!DOCTYPE svg PUBLIC "-//W3C//DTD SVG 1.0//EN"
 "http://www.w3.org/TR/2001/REC-SVG-20010904/DTD/svg10.dtd" [
 <!ATTLIST svg xmlns:xlink CDATA #FIXED "http://www.w3.org/1999/xlink">
]>
<!-- Generated by libgvc version 2.20.2 (Tue Mar &#160;2 21:46:26 UTC 2010)
     For user: (romang) romang,,,, -->
<!-- Title: g Pages: 1 -->
<svg width="847pt" height="430pt"
 viewBox="0.00 0.00 847.00 430.00" xmlns="http://www.w3.org/2000/svg" xmlns:xlink="http://www.w3.org/1999/xlink">
<g id="graph0" class="graph" transform="scale(1 1) rotate(0) translate(4 426)">
<title>g</title>
<polygon style="fill:white;stroke:white;" points="-4,4 -4,-426 843,-426 843,4 -4,4"/>
<!-- 1 -->
<g id="node1" class="node"><title>1</title>
<ellipse style="fill:none;stroke:#87860c;" cx="64" cy="-18" rx="45.8622" ry="18"/>
<text text-anchor="middle" x="64" y="-13.9" style="font-family:Times New Roman;font-size:14.00;">Alicja T</text>
</g>
<!-- 2 -->
<g id="node2" class="node"><title>2</title>
<ellipse style="fill:none;stroke:#87860c;" cx="64" cy="-92" rx="63.9292" ry="18"/>
<text text-anchor="middle" x="64" y="-87.9" style="font-family:Times New Roman;font-size:14.00;">Alicja word</text>
</g>
<!-- 2&#45;&gt;1 -->
<g id="edge1" class="edge"><title>2&#45;&gt;1</title>
<path style="fill:none;stroke:black;" d="M64,-74C64,-65 64,-56 64,-46"/>
<polygon style="fill:black;stroke:black;" points="67.5001,-46 64,-36 60.5001,-46 67.5001,-46"/>
</g>
<!-- 3 -->
<g id="node3" class="node"><title>3</title>
<ellipse style="fill:none;stroke:#87860c;" cx="64" cy="-166" rx="64.1231" ry="18"/>
<text text-anchor="middle" x="64" y="-161.9" style="font-family:Times New Roman;font-size:14.00;">Alicja subst</text>
</g>
<!-- 3&#45;&gt;2 -->
<g id="edge2" class="edge"><title>3&#45;&gt;2</title>
<path style="fill:none;stroke:black;" d="M64,-148C64,-139 64,-130 64,-120"/>
<polygon style="fill:black;stroke:black;" points="67.5001,-120 64,-110 60.5001,-120 67.5001,-120"/>
</g>
<!-- 4 -->
<g id="node4" class="node"><title>4</title>
<ellipse style="fill:none;stroke:#87860c;" cx="65" cy="-240" rx="64.1231" ry="18"/>
<text text-anchor="middle" x="65" y="-235.9" style="font-family:Times New Roman;font-size:14.00;">Alicja subst</text>
</g>
<!-- 4&#45;&gt;3 -->
<g id="edge3" class="edge"><title>4&#45;&gt;3</title>
<path style="fill:none;stroke:black;" d="M65,-222C64,-213 64,-204 64,-194"/>
<polygon style="fill:black;stroke:black;" points="67.5001,-194 64,-184 60.5001,-194 67.5001,-194"/>
</g>
<!-- 5 -->
<g id="node5" class="node"><title>5</title>
<ellipse style="fill:none;stroke:#87860c;" cx="91" cy="-314" rx="52.8111" ry="18"/>
<text text-anchor="middle" x="91" y="-309.9" style="font-family:Times New Roman;font-size:14.00;">Alicja NP</text>
</g>
<!-- 5&#45;&gt;4 -->
<g id="edge4" class="edge"><title>5&#45;&gt;4</title>
<path style="fill:none;stroke:black;" d="M85,-296C82,-287 78,-277 75,-267"/>
<polygon style="fill:black;stroke:black;" points="78.2598,-265.717 71,-258 71.8631,-268.56 78.2598,-265.717"/>
</g>
<!-- 6 -->
<g id="node6" class="node"><title>6</title>
<ellipse style="fill:none;stroke:#87860c;" cx="347" cy="-404" rx="27" ry="18"/>
<text text-anchor="middle" x="347" y="-399.9" style="font-family:Times New Roman;font-size:14.00;">_ B</text>
</g>
<!-- 7 -->
<g id="node7" class="node"><title>7</title>
<ellipse style="fill:none;stroke:#87860c;" cx="210" cy="-18" rx="45.8622" ry="18"/>
<text text-anchor="middle" x="210" y="-13.9" style="font-family:Times New Roman;font-size:14.00;">miała T</text>
</g>
<!-- 8 -->
<g id="node8" class="node"><title>8</title>
<ellipse style="fill:none;stroke:#87860c;" cx="210" cy="-92" rx="64.1231" ry="18"/>
<text text-anchor="middle" x="210" y="-87.9" style="font-family:Times New Roman;font-size:14.00;">miała word</text>
</g>
<!-- 8&#45;&gt;7 -->
<g id="edge5" class="edge"><title>8&#45;&gt;7</title>
<path style="fill:none;stroke:black;" d="M210,-74C210,-65 210,-56 210,-46"/>
<polygon style="fill:black;stroke:black;" points="213.5,-46 210,-36 206.5,-46 213.5,-46"/>
</g>
<!-- 9 -->
<g id="node9" class="node"><title>9</title>
<ellipse style="fill:none;stroke:#87860c;" cx="210" cy="-166" rx="61.1496" ry="18"/>
<text text-anchor="middle" x="210" y="-161.9" style="font-family:Times New Roman;font-size:14.00;">miała verb</text>
</g>
<!-- 9&#45;&gt;8 -->
<g id="edge6" class="edge"><title>9&#45;&gt;8</title>
<path style="fill:none;stroke:black;" d="M210,-148C210,-139 210,-130 210,-120"/>
<polygon style="fill:black;stroke:black;" points="213.5,-120 210,-110 206.5,-120 213.5,-120"/>
</g>
<!-- 10 -->
<g id="node10" class="node"><title>10</title>
<ellipse style="fill:none;stroke:#87860c;" cx="209" cy="-240" rx="61.1496" ry="18"/>
<text text-anchor="middle" x="209" y="-235.9" style="font-family:Times New Roman;font-size:14.00;">miała verb</text>
</g>
<!-- 10&#45;&gt;9 -->
<g id="edge7" class="edge"><title>10&#45;&gt;9</title>
<path style="fill:none;stroke:black;" d="M209,-222C210,-213 210,-204 210,-194"/>
<polygon style="fill:black;stroke:black;" points="213.5,-194 210,-184 206.5,-194 213.5,-194"/>
</g>
<!-- 11 -->
<g id="node11" class="node"><title>11</title>
<ellipse style="fill:none;stroke:#87860c;" cx="215" cy="-314" rx="52.8111" ry="18"/>
<text text-anchor="middle" x="215" y="-309.9" style="font-family:Times New Roman;font-size:14.00;">miała VP</text>
</g>
<!-- 11&#45;&gt;10 -->
<g id="edge8" class="edge"><title>11&#45;&gt;10</title>
<path style="fill:none;stroke:black;" d="M214,-296C213,-287 213,-278 212,-268"/>
<polygon style="fill:black;stroke:black;" points="215.478,-267.602 211,-258 208.512,-268.299 215.478,-267.602"/>
</g>
<!-- 12 -->
<g id="node12" class="node"><title>12</title>
<ellipse style="fill:none;stroke:#87860c;" cx="460" cy="-404" rx="27" ry="18"/>
<text text-anchor="middle" x="460" y="-399.9" style="font-family:Times New Roman;font-size:14.00;">_ B</text>
</g>
<!-- 13 -->
<g id="node13" class="node"><title>13</title>
<ellipse style="fill:none;stroke:#87860c;" cx="384" cy="-18" rx="36.8288" ry="18"/>
<text text-anchor="middle" x="384" y="-13.9" style="font-family:Times New Roman;font-size:14.00;">psa T</text>
</g>
<!-- 14 -->
<g id="node14" class="node"><title>14</title>
<ellipse style="fill:none;stroke:#87860c;" cx="384" cy="-92" rx="54.8957" ry="18"/>
<text text-anchor="middle" x="384" y="-87.9" style="font-family:Times New Roman;font-size:14.00;">psa word</text>
</g>
<!-- 14&#45;&gt;13 -->
<g id="edge9" class="edge"><title>14&#45;&gt;13</title>
<path style="fill:none;stroke:black;" d="M384,-74C384,-65 384,-56 384,-46"/>
<polygon style="fill:black;stroke:black;" points="387.5,-46 384,-36 380.5,-46 387.5,-46"/>
</g>
<!-- 15 -->
<g id="node15" class="node"><title>15</title>
<ellipse style="fill:none;stroke:#87860c;" cx="384" cy="-166" rx="55.7874" ry="18"/>
<text text-anchor="middle" x="384" y="-161.9" style="font-family:Times New Roman;font-size:14.00;">psa subst</text>
</g>
<!-- 15&#45;&gt;14 -->
<g id="edge10" class="edge"><title>15&#45;&gt;14</title>
<path style="fill:none;stroke:black;" d="M384,-148C384,-139 384,-130 384,-120"/>
<polygon style="fill:black;stroke:black;" points="387.5,-120 384,-110 380.5,-120 387.5,-120"/>
</g>
<!-- 16 -->
<g id="node16" class="node"><title>16</title>
<ellipse style="fill:none;stroke:#87860c;" cx="344" cy="-240" rx="55.7874" ry="18"/>
<text text-anchor="middle" x="344" y="-235.9" style="font-family:Times New Roman;font-size:14.00;">psa subst</text>
</g>
<!-- 16&#45;&gt;15 -->
<g id="edge11" class="edge"><title>16&#45;&gt;15</title>
<path style="fill:none;stroke:black;" d="M354,-222C358,-213 364,-202 369,-193"/>
<polygon style="fill:black;stroke:black;" points="372.203,-194.441 374,-184 366.084,-191.042 372.203,-194.441"/>
</g>
<!-- 17 -->
<g id="node17" class="node"><title>17</title>
<ellipse style="fill:none;stroke:#87860c;" cx="474" cy="-240" rx="55.7874" ry="18"/>
<text text-anchor="middle" x="474" y="-235.9" style="font-family:Times New Roman;font-size:14.00;">psa subst</text>
</g>
<!-- 17&#45;&gt;15 -->
<g id="edge12" class="edge"><title>17&#45;&gt;15</title>
<path style="fill:none;stroke:black;" d="M454,-223C442,-213 426,-200 413,-190"/>
<polygon style="fill:black;stroke:black;" points="414.831,-186.951 405,-183 410.221,-192.219 414.831,-186.951"/>
</g>
<!-- 18 -->
<g id="node18" class="node"><title>18</title>
<ellipse style="fill:none;stroke:#87860c;" cx="340" cy="-314" rx="43.7776" ry="18"/>
<text text-anchor="middle" x="340" y="-309.9" style="font-family:Times New Roman;font-size:14.00;">psa NP</text>
</g>
<!-- 18&#45;&gt;16 -->
<g id="edge13" class="edge"><title>18&#45;&gt;16</title>
<path style="fill:none;stroke:black;" d="M341,-296C342,-287 342,-278 342,-268"/>
<polygon style="fill:black;stroke:black;" points="345.488,-268.299 343,-258 338.522,-267.602 345.488,-268.299"/>
</g>
<!-- 19 -->
<g id="node19" class="node"><title>19</title>
<ellipse style="fill:none;stroke:#87860c;" cx="463" cy="-314" rx="43.7776" ry="18"/>
<text text-anchor="middle" x="463" y="-309.9" style="font-family:Times New Roman;font-size:14.00;">psa NP</text>
</g>
<!-- 19&#45;&gt;17 -->
<g id="edge14" class="edge"><title>19&#45;&gt;17</title>
<path style="fill:none;stroke:black;" d="M466,-296C467,-287 469,-278 470,-268"/>
<polygon style="fill:black;stroke:black;" points="473.488,-268.299 471,-258 466.522,-267.602 473.488,-268.299"/>
</g>
<!-- 20 -->
<g id="node20" class="node"><title>20</title>
<ellipse style="fill:none;stroke:#87860c;" cx="198" cy="-404" rx="97.9784" ry="18"/>
<text text-anchor="middle" x="198" y="-399.9" style="font-family:Times New Roman;font-size:14.00;">Alicja_miała_psa S</text>
</g>
<!-- 20&#45;&gt;5 -->
<g id="edge15" class="edge"><title>20&#45;&gt;5</title>
<path style="fill:none;stroke:black;" d="M143,-389C131,-384 120,-377 111,-368 104,-361 100,-351 97,-342"/>
<polygon style="fill:black;stroke:black;" points="100.226,-340.573 94,-332 93.5212,-342.584 100.226,-340.573"/>
<text text-anchor="middle" x="119" y="-354.9" style="font-family:Times New Roman;font-size:14.00;">1</text>
</g>
<!-- 20&#45;&gt;5 -->
<g id="edge18" class="edge"><title>20&#45;&gt;5</title>
<path style="fill:none;stroke:black;" d="M177,-386C161,-372 137,-353 119,-338"/>
<polygon style="fill:black;stroke:black;" points="120.831,-334.951 111,-331 116.221,-340.219 120.831,-334.951"/>
<text text-anchor="middle" x="160" y="-354.9" style="font-family:Times New Roman;font-size:14.00;">2</text>
</g>
<!-- 20&#45;&gt;11 -->
<g id="edge16" class="edge"><title>20&#45;&gt;11</title>
<path style="fill:none;stroke:black;" d="M191,-386C188,-375 185,-362 189,-350 190,-346 192,-343 194,-340"/>
<polygon style="fill:black;stroke:black;" points="197.203,-341.441 199,-331 191.084,-338.042 197.203,-341.441"/>
<text text-anchor="middle" x="194" y="-354.9" style="font-family:Times New Roman;font-size:14.00;">1</text>
</g>
<!-- 20&#45;&gt;11 -->
<g id="edge19" class="edge"><title>20&#45;&gt;11</title>
<path style="fill:none;stroke:black;" d="M201,-386C203,-373 206,-356 209,-342"/>
<polygon style="fill:black;stroke:black;" points="212.471,-342.492 211,-332 205.607,-341.119 212.471,-342.492"/>
<text text-anchor="middle" x="214" y="-354.9" style="font-family:Times New Roman;font-size:14.00;">2</text>
</g>
<!-- 20&#45;&gt;18 -->
<g id="edge17" class="edge"><title>20&#45;&gt;18</title>
<path style="fill:none;stroke:black;" d="M225,-387C249,-372 283,-350 307,-335"/>
<polygon style="fill:black;stroke:black;" points="309.621,-337.459 316,-329 305.738,-331.635 309.621,-337.459"/>
<text text-anchor="middle" x="288" y="-354.9" style="font-family:Times New Roman;font-size:14.00;">1</text>
</g>
<!-- 20&#45;&gt;19 -->
<g id="edge20" class="edge"><title>20&#45;&gt;19</title>
<path style="fill:none;stroke:black;" d="M245,-388C295,-371 371,-345 419,-329"/>
<polygon style="fill:black;stroke:black;" points="420.427,-332.226 429,-326 418.416,-325.521 420.427,-332.226"/>
<text text-anchor="middle" x="360" y="-354.9" style="font-family:Times New Roman;font-size:14.00;">2</text>
</g>
<!-- 21 -->
<g id="node21" class="node"><title>21</title>
<ellipse style="fill:none;stroke:#dcb0e7;" cx="646" cy="-314" rx="120.91" ry="18"/>
<text text-anchor="middle" x="646" y="-309.9" style="font-family:Times New Roman;font-size:14.00;">Alicja_miała_psa. FRAG</text>
</g>
<!-- 22 -->
<g id="node22" class="node"><title>22</title>
<ellipse style="fill:none;stroke:#87860c;" cx="646" cy="-404" rx="120.91" ry="18"/>
<text text-anchor="middle" x="646" y="-399.9" style="font-family:Times New Roman;font-size:14.00;">Alicja_miała_psa. TEXT</text>
</g>
<!-- 22&#45;&gt;21 -->
<g id="edge21" class="edge"><title>22&#45;&gt;21</title>
<path style="fill:none;stroke:black;" d="M646,-386C646,-373 646,-357 646,-342"/>
<polygon style="fill:black;stroke:black;" points="649.5,-342 646,-332 642.5,-342 649.5,-342"/>
</g>
<!-- 23 -->
<g id="node23" class="node"><title>23</title>
<ellipse style="fill:none;stroke:#87860c;" cx="812" cy="-404" rx="27" ry="18"/>
<text text-anchor="middle" x="812" y="-399.9" style="font-family:Times New Roman;font-size:14.00;">. I</text>
</g>
</g>
</svg>
